<svg width="64" height="64" viewBox="0 0 64 64" fill="none" xmlns="http://www.w3.org/2000/svg">
<g clip-path="url(#clip0_410_8842)">
<rect x="2" y="2" width="60" height="60" rx="30" fill="#E7F1FF"/>
<path d="M32 42C14.24 42 8 51 8 57V66H56V57C56 51 49.76 42 32 42Z" fill="#808080" fill-opacity="0.94"/>
<path d="M32 39C39.4558 39 45.5 32.9558 45.5 25.5C45.5 18.0442 39.4558 12 32 12C24.5442 12 18.5 18.0442 18.5 25.5C18.5 32.9558 24.5442 39 32 39Z" fill="#808080" fill-opacity="0.94"/>
</g>
<rect x="1" y="1" width="62" height="62" rx="31" stroke="black" stroke-opacity="0.8" stroke-width="2"/>
<defs>
<clipPath id="clip0_410_8842">
<rect x="2" y="2" width="60" height="60" rx="30" fill="white"/>
</clipPath>
</defs>
</svg>
