<svg width="58" height="85" viewBox="0 0 58 85" fill="none" xmlns="http://www.w3.org/2000/svg">
<circle cx="29" cy="29" r="28.75" stroke="black" stroke-opacity="0.6" stroke-width="0.5"/>
<path d="M9.17383 73.4688V82H8.04297V73.4688H9.17383ZM14.4297 73.4688L10.7266 78.1621H8.72266L8.54688 77.2246H10.0527L13.0293 73.4688H14.4297ZM13.293 82L10.0879 78.0156L10.7207 77.0254L14.6758 82H13.293ZM19.2754 80.916V77.6523C19.2754 77.4023 19.2246 77.1855 19.123 77.002C19.0254 76.8145 18.877 76.6699 18.6777 76.5684C18.4785 76.4668 18.2324 76.416 17.9395 76.416C17.666 76.416 17.4258 76.4629 17.2188 76.5566C17.0156 76.6504 16.8555 76.7734 16.7383 76.9258C16.625 77.0781 16.5684 77.2422 16.5684 77.418H15.4844C15.4844 77.1914 15.543 76.9668 15.6602 76.7441C15.7773 76.5215 15.9453 76.3203 16.1641 76.1406C16.3867 75.957 16.6523 75.8125 16.9609 75.707C17.2734 75.5977 17.6211 75.543 18.0039 75.543C18.4648 75.543 18.8711 75.6211 19.2227 75.7773C19.5781 75.9336 19.8555 76.1699 20.0547 76.4863C20.2578 76.7988 20.3594 77.1914 20.3594 77.6641V80.6172C20.3594 80.8281 20.377 81.0527 20.4121 81.291C20.4512 81.5293 20.5078 81.7344 20.582 81.9062V82H19.4512C19.3965 81.875 19.3535 81.709 19.3223 81.502C19.291 81.291 19.2754 81.0957 19.2754 80.916ZM19.4629 78.1562L19.4746 78.918H18.3789C18.0703 78.918 17.7949 78.9434 17.5527 78.9941C17.3105 79.041 17.1074 79.1133 16.9434 79.2109C16.7793 79.3086 16.6543 79.4316 16.5684 79.5801C16.4824 79.7246 16.4395 79.8945 16.4395 80.0898C16.4395 80.2891 16.4844 80.4707 16.5742 80.6348C16.6641 80.7988 16.7988 80.9297 16.9785 81.0273C17.1621 81.1211 17.3867 81.168 17.6523 81.168C17.9844 81.168 18.2773 81.0977 18.5312 80.957C18.7852 80.8164 18.9863 80.6445 19.1348 80.4414C19.2871 80.2383 19.3691 80.041 19.3809 79.8496L19.8438 80.3711C19.8164 80.5352 19.7422 80.7168 19.6211 80.916C19.5 81.1152 19.3379 81.3066 19.1348 81.4902C18.9355 81.6699 18.6973 81.8203 18.4199 81.9414C18.1465 82.0586 17.8379 82.1172 17.4941 82.1172C17.0645 82.1172 16.6875 82.0332 16.3633 81.8652C16.043 81.6973 15.793 81.4727 15.6133 81.1914C15.4375 80.9062 15.3496 80.5879 15.3496 80.2363C15.3496 79.8965 15.416 79.5977 15.5488 79.3398C15.6816 79.0781 15.873 78.8613 16.123 78.6895C16.373 78.5137 16.6738 78.3809 17.0254 78.291C17.377 78.2012 17.7695 78.1562 18.2031 78.1562H19.4629ZM25.709 80.5586L27.8652 75.6602H28.9082L26.084 82H25.334L22.5215 75.6602H23.5645L25.709 80.5586ZM23.248 75.6602V82H22.1641V75.6602H23.248ZM28.1348 82V75.6602H29.2246V82H28.1348ZM33.6016 82.1172C33.1602 82.1172 32.7598 82.043 32.4004 81.8945C32.0449 81.7422 31.7383 81.5293 31.4805 81.2559C31.2266 80.9824 31.0312 80.6582 30.8945 80.2832C30.7578 79.9082 30.6895 79.498 30.6895 79.0527V78.8066C30.6895 78.291 30.7656 77.832 30.918 77.4297C31.0703 77.0234 31.2773 76.6797 31.5391 76.3984C31.8008 76.1172 32.0977 75.9043 32.4297 75.7598C32.7617 75.6152 33.1055 75.543 33.4609 75.543C33.9141 75.543 34.3047 75.6211 34.6328 75.7773C34.9648 75.9336 35.2363 76.1523 35.4473 76.4336C35.6582 76.7109 35.8145 77.0391 35.916 77.418C36.0176 77.793 36.0684 78.2031 36.0684 78.6484V79.1348H31.334V78.25H34.9844V78.168C34.9688 77.8867 34.9102 77.6133 34.8086 77.3477C34.7109 77.082 34.5547 76.8633 34.3398 76.6914C34.125 76.5195 33.832 76.4336 33.4609 76.4336C33.2148 76.4336 32.9883 76.4863 32.7812 76.5918C32.5742 76.6934 32.3965 76.8457 32.248 77.0488C32.0996 77.252 31.9844 77.5 31.9023 77.793C31.8203 78.0859 31.7793 78.4238 31.7793 78.8066V79.0527C31.7793 79.3535 31.8203 79.6367 31.9023 79.9023C31.9883 80.1641 32.1113 80.3945 32.2715 80.5938C32.4355 80.793 32.6328 80.9492 32.8633 81.0625C33.0977 81.1758 33.3633 81.2324 33.6602 81.2324C34.043 81.2324 34.3672 81.1543 34.6328 80.998C34.8984 80.8418 35.1309 80.6328 35.3301 80.3711L35.9863 80.8926C35.8496 81.0996 35.6758 81.2969 35.4648 81.4844C35.2539 81.6719 34.9941 81.8242 34.6855 81.9414C34.3809 82.0586 34.0195 82.1172 33.6016 82.1172ZM38.418 76.8789V84.4375H37.3281V75.6602H38.3242L38.418 76.8789ZM42.6895 78.7773V78.9004C42.6895 79.3613 42.6348 79.7891 42.5254 80.1836C42.416 80.5742 42.2559 80.9141 42.0449 81.2031C41.8379 81.4922 41.582 81.7168 41.2773 81.877C40.9727 82.0371 40.623 82.1172 40.2285 82.1172C39.8262 82.1172 39.4707 82.0508 39.1621 81.918C38.8535 81.7852 38.5918 81.5918 38.377 81.3379C38.1621 81.084 37.9902 80.7793 37.8613 80.4238C37.7363 80.0684 37.6504 79.668 37.6035 79.2227V78.5664C37.6504 78.0977 37.7383 77.6777 37.8672 77.3066C37.9961 76.9355 38.166 76.6191 38.377 76.3574C38.5918 76.0918 38.8516 75.8906 39.1562 75.7539C39.4609 75.6133 39.8125 75.543 40.2109 75.543C40.6094 75.543 40.9629 75.6211 41.2715 75.7773C41.5801 75.9297 41.8398 76.1484 42.0508 76.4336C42.2617 76.7188 42.4199 77.0605 42.5254 77.459C42.6348 77.8535 42.6895 78.293 42.6895 78.7773ZM41.5996 78.9004V78.7773C41.5996 78.4609 41.5664 78.1641 41.5 77.8867C41.4336 77.6055 41.3301 77.3594 41.1895 77.1484C41.0527 76.9336 40.877 76.7656 40.6621 76.6445C40.4473 76.5195 40.1914 76.457 39.8945 76.457C39.6211 76.457 39.3828 76.5039 39.1797 76.5977C38.9805 76.6914 38.8105 76.8184 38.6699 76.9785C38.5293 77.1348 38.4141 77.3145 38.3242 77.5176C38.2383 77.7168 38.1738 77.9238 38.1309 78.1387V79.6562C38.209 79.9297 38.3184 80.1875 38.459 80.4297C38.5996 80.668 38.7871 80.8613 39.0215 81.0098C39.2559 81.1543 39.5508 81.2266 39.9062 81.2266C40.1992 81.2266 40.4512 81.166 40.6621 81.0449C40.877 80.9199 41.0527 80.75 41.1895 80.5352C41.3301 80.3203 41.4336 80.0742 41.5 79.7969C41.5664 79.5156 41.5996 79.2168 41.5996 78.9004ZM47.8105 80.916V77.6523C47.8105 77.4023 47.7598 77.1855 47.6582 77.002C47.5605 76.8145 47.4121 76.6699 47.2129 76.5684C47.0137 76.4668 46.7676 76.416 46.4746 76.416C46.2012 76.416 45.9609 76.4629 45.7539 76.5566C45.5508 76.6504 45.3906 76.7734 45.2734 76.9258C45.1602 77.0781 45.1035 77.2422 45.1035 77.418H44.0195C44.0195 77.1914 44.0781 76.9668 44.1953 76.7441C44.3125 76.5215 44.4805 76.3203 44.6992 76.1406C44.9219 75.957 45.1875 75.8125 45.4961 75.707C45.8086 75.5977 46.1562 75.543 46.5391 75.543C47 75.543 47.4062 75.6211 47.7578 75.7773C48.1133 75.9336 48.3906 76.1699 48.5898 76.4863C48.793 76.7988 48.8945 77.1914 48.8945 77.6641V80.6172C48.8945 80.8281 48.9121 81.0527 48.9473 81.291C48.9863 81.5293 49.043 81.7344 49.1172 81.9062V82H47.9863C47.9316 81.875 47.8887 81.709 47.8574 81.502C47.8262 81.291 47.8105 81.0957 47.8105 80.916ZM47.998 78.1562L48.0098 78.918H46.9141C46.6055 78.918 46.3301 78.9434 46.0879 78.9941C45.8457 79.041 45.6426 79.1133 45.4785 79.2109C45.3145 79.3086 45.1895 79.4316 45.1035 79.5801C45.0176 79.7246 44.9746 79.8945 44.9746 80.0898C44.9746 80.2891 45.0195 80.4707 45.1094 80.6348C45.1992 80.7988 45.334 80.9297 45.5137 81.0273C45.6973 81.1211 45.9219 81.168 46.1875 81.168C46.5195 81.168 46.8125 81.0977 47.0664 80.957C47.3203 80.8164 47.5215 80.6445 47.6699 80.4414C47.8223 80.2383 47.9043 80.041 47.916 79.8496L48.3789 80.3711C48.3516 80.5352 48.2773 80.7168 48.1562 80.916C48.0352 81.1152 47.873 81.3066 47.6699 81.4902C47.4707 81.6699 47.2324 81.8203 46.9551 81.9414C46.6816 82.0586 46.373 82.1172 46.0293 82.1172C45.5996 82.1172 45.2227 82.0332 44.8984 81.8652C44.5781 81.6973 44.3281 81.4727 44.1484 81.1914C43.9727 80.9062 43.8848 80.5879 43.8848 80.2363C43.8848 79.8965 43.9512 79.5977 44.084 79.3398C44.2168 79.0781 44.4082 78.8613 44.6582 78.6895C44.9082 78.5137 45.209 78.3809 45.5605 78.291C45.9121 78.2012 46.3047 78.1562 46.7383 78.1562H47.998Z" fill="black"/>
<path d="M41.8333 37.1667C41.8333 37.7855 41.5875 38.379 41.1499 38.8166C40.7123 39.2542 40.1188 39.5 39.5 39.5H18.5C17.8811 39.5 17.2876 39.2542 16.85 38.8166C16.4125 38.379 16.1666 37.7855 16.1666 37.1667V24.3333C16.1666 23.7145 16.4125 23.121 16.85 22.6834C17.2876 22.2458 17.8811 22 18.5 22H23.1666L25.5 18.5H32.5L34.8333 22H39.5C40.1188 22 40.7123 22.2458 41.1499 22.6834C41.5875 23.121 41.8333 23.7145 41.8333 24.3333V37.1667Z" fill="#3473E6" stroke="white" stroke-width="1.5" stroke-linecap="round" stroke-linejoin="round"/>
<path d="M29 34.8333C31.5774 34.8333 33.6667 32.744 33.6667 30.1667C33.6667 27.5893 31.5774 25.5 29 25.5C26.4227 25.5 24.3334 27.5893 24.3334 30.1667C24.3334 32.744 26.4227 34.8333 29 34.8333Z" fill="#3473E6" stroke="white" stroke-width="1.5" stroke-linecap="round" stroke-linejoin="round"/>
</svg>
