<svg width="40" height="70" viewBox="0 0 40 70" fill="none" xmlns="http://www.w3.org/2000/svg">
<path d="M4.03125 58.3516C4.44531 58.3516 4.83008 58.4121 5.18555 58.5332C5.54102 58.6543 5.85742 58.832 6.13477 59.0664C6.41602 59.2969 6.65625 59.5801 6.85547 59.916C7.05469 60.248 7.20508 60.6289 7.30664 61.0586C7.41211 61.4844 7.46484 61.9531 7.46484 62.4648V63.0039C7.46484 63.6445 7.38477 64.2188 7.22461 64.7266C7.06445 65.2344 6.83398 65.666 6.5332 66.0215C6.23242 66.377 5.87109 66.6484 5.44922 66.8359C5.03125 67.0234 4.5625 67.1172 4.04297 67.1172C3.64062 67.1172 3.26367 67.0566 2.91211 66.9355C2.56055 66.8145 2.24219 66.6387 1.95703 66.4082C1.67578 66.1738 1.43359 65.8906 1.23047 65.5586C1.02734 65.2227 0.871094 64.8418 0.761719 64.416C0.65625 63.9863 0.603516 63.5156 0.603516 63.0039V62.4648C0.603516 61.8242 0.685547 61.252 0.849609 60.748C1.01758 60.2402 1.25391 59.8086 1.55859 59.4531C1.86328 59.0938 2.22461 58.8203 2.64258 58.6328C3.06445 58.4453 3.52734 58.3516 4.03125 58.3516ZM4.03125 59.3125C3.71484 59.3125 3.42383 59.3691 3.1582 59.4824C2.89258 59.5957 2.66016 59.7637 2.46094 59.9863C2.26562 60.209 2.10547 60.4844 1.98047 60.8125C1.85547 61.1367 1.77539 61.5117 1.74023 61.9375C1.73633 62 1.73242 62.0664 1.72852 62.1367C1.72461 62.2031 1.72266 62.2715 1.72266 62.3418H6.3457C6.3457 62.2754 6.34375 62.209 6.33984 62.1426C6.33984 62.0762 6.33594 62.0117 6.32812 61.9492C6.29297 61.5195 6.2168 61.1426 6.09961 60.8184C5.98242 60.4902 5.82422 60.2148 5.625 59.9922C5.42969 59.7656 5.19727 59.5957 4.92773 59.4824C4.66211 59.3691 4.36328 59.3125 4.03125 59.3125ZM4.04297 66.1621C4.37891 66.1621 4.68164 66.1055 4.95117 65.9922C5.2207 65.875 5.45117 65.7031 5.64258 65.4766C5.83789 65.25 5.99219 64.9707 6.10547 64.6387C6.22266 64.3027 6.29688 63.918 6.32812 63.4844C6.33203 63.4414 6.33398 63.4004 6.33398 63.3613C6.33789 63.3184 6.33984 63.2754 6.33984 63.2324H1.72852C1.73242 63.2949 1.73633 63.3555 1.74023 63.4141C1.74414 63.4727 1.74805 63.5293 1.75195 63.584C1.79102 64.002 1.87305 64.3711 1.99805 64.6914C2.12305 65.0117 2.28516 65.2812 2.48438 65.5C2.68359 65.7188 2.91406 65.8848 3.17578 65.998C3.44141 66.1074 3.73047 66.1621 4.04297 66.1621ZM13.7754 60.6602V67H12.6914V60.6602H13.7754ZM13.4062 63.5723V64.4629C13.1875 64.5449 12.9648 64.6191 12.7383 64.6855C12.5156 64.748 12.2793 64.7988 12.0293 64.8379C11.7832 64.873 11.5156 64.8906 11.2266 64.8906C10.7266 64.8906 10.293 64.8047 9.92578 64.6328C9.55859 64.457 9.27539 64.1934 9.07617 63.8418C8.87695 63.4863 8.77734 63.0391 8.77734 62.5V60.6484H9.86133V62.5C9.86133 62.8516 9.91406 63.1367 10.0195 63.3555C10.125 63.5742 10.2793 63.7363 10.4824 63.8418C10.6855 63.9434 10.9336 63.9941 11.2266 63.9941C11.5078 63.9941 11.7715 63.9766 12.0176 63.9414C12.2676 63.9023 12.5059 63.8516 12.7324 63.7891C12.9629 63.7266 13.1875 63.6543 13.4062 63.5723ZM18.2812 66.2266V69.4434H17.1973V66.2266H18.2812ZM17.707 65.5293L19.3945 60.6602H20.5078L18.1582 67H17.4375L17.707 65.5293ZM16.0781 60.6602L17.8125 65.5352L18.0527 67H17.332L14.9707 60.6602H16.0781ZM22.6289 61.8789V69.4375H21.5391V60.6602H22.5352L22.6289 61.8789ZM26.9004 63.7773V63.9004C26.9004 64.3613 26.8457 64.7891 26.7363 65.1836C26.627 65.5742 26.4668 65.9141 26.2559 66.2031C26.0488 66.4922 25.793 66.7168 25.4883 66.877C25.1836 67.0371 24.834 67.1172 24.4395 67.1172C24.0371 67.1172 23.6816 67.0508 23.373 66.918C23.0645 66.7852 22.8027 66.5918 22.5879 66.3379C22.373 66.084 22.2012 65.7793 22.0723 65.4238C21.9473 65.0684 21.8613 64.668 21.8145 64.2227V63.5664C21.8613 63.0977 21.9492 62.6777 22.0781 62.3066C22.207 61.9355 22.377 61.6191 22.5879 61.3574C22.8027 61.0918 23.0625 60.8906 23.3672 60.7539C23.6719 60.6133 24.0234 60.543 24.4219 60.543C24.8203 60.543 25.1738 60.6211 25.4824 60.7773C25.791 60.9297 26.0508 61.1484 26.2617 61.4336C26.4727 61.7188 26.6309 62.0605 26.7363 62.459C26.8457 62.8535 26.9004 63.293 26.9004 63.7773ZM25.8105 63.9004V63.7773C25.8105 63.4609 25.7773 63.1641 25.7109 62.8867C25.6445 62.6055 25.541 62.3594 25.4004 62.1484C25.2637 61.9336 25.0879 61.7656 24.873 61.6445C24.6582 61.5195 24.4023 61.457 24.1055 61.457C23.832 61.457 23.5938 61.5039 23.3906 61.5977C23.1914 61.6914 23.0215 61.8184 22.8809 61.9785C22.7402 62.1348 22.625 62.3145 22.5352 62.5176C22.4492 62.7168 22.3848 62.9238 22.3418 63.1387V64.6562C22.4199 64.9297 22.5293 65.1875 22.6699 65.4297C22.8105 65.668 22.998 65.8613 23.2324 66.0098C23.4668 66.1543 23.7617 66.2266 24.1172 66.2266C24.4102 66.2266 24.6621 66.166 24.873 66.0449C25.0879 65.9199 25.2637 65.75 25.4004 65.5352C25.541 65.3203 25.6445 65.0742 25.7109 64.7969C25.7773 64.5156 25.8105 64.2168 25.8105 63.9004ZM30.9727 66.2266V69.4434H29.8887V66.2266H30.9727ZM30.3984 65.5293L32.0859 60.6602H33.1992L30.8496 67H30.1289L30.3984 65.5293ZM28.7695 60.6602L30.5039 65.5352L30.7441 67H30.0234L27.6621 60.6602H28.7695ZM36.9961 66.2266V69.4434H35.9121V66.2266H36.9961ZM36.4219 65.5293L38.1094 60.6602H39.2227L36.873 67H36.1523L36.4219 65.5293ZM34.793 60.6602L36.5273 65.5352L36.7676 67H36.0469L33.6855 60.6602H34.793Z" fill="black"/>
<path d="M28.75 7.5V25C28.75 25.663 28.4866 26.2989 28.0178 26.7678C27.5489 27.2366 26.913 27.5 26.25 27.5H13.75C13.087 27.5 12.4511 27.2366 11.9822 26.7678C11.5134 26.2989 11.25 25.663 11.25 25V7.5M15 7.5V5C15 4.33696 15.2634 3.70107 15.7322 3.23223C16.2011 2.76339 16.837 2.5 17.5 2.5H22.5C23.163 2.5 23.7989 2.76339 24.2678 3.23223C24.7366 3.70107 25 4.33696 25 5V7.5" fill="#D9D9D9"/>
<path d="M28.75 7.5V25C28.75 25.663 28.4866 26.2989 28.0178 26.7678C27.5489 27.2366 26.913 27.5 26.25 27.5H13.75C13.087 27.5 12.4511 27.2366 11.9822 26.7678C11.5134 26.2989 11.25 25.663 11.25 25V7.5M15 7.5V5C15 4.33696 15.2634 3.70107 15.7322 3.23223C16.2011 2.76339 16.837 2.5 17.5 2.5H22.5C23.163 2.5 23.7989 2.76339 24.2678 3.23223C24.7366 3.70107 25 4.33696 25 5V7.5" stroke="#D9D9D9" stroke-width="1.5" stroke-linecap="round" stroke-linejoin="round"/>
<path d="M8.75 7.5H11.25H31.25" stroke="#D9D9D9" stroke-width="1.5" stroke-linecap="round" stroke-linejoin="round"/>
<path d="M17.5 13.75V21.25" stroke="white" stroke-width="1.5" stroke-linecap="round" stroke-linejoin="round"/>
<path d="M22.5 13.75V21.25" stroke="white" stroke-width="1.5" stroke-linecap="round" stroke-linejoin="round"/>
</svg>
