<svg width="58" height="85" viewBox="0 0 58 85" fill="none" xmlns="http://www.w3.org/2000/svg">
<circle cx="29" cy="29" r="28.75" stroke="black" stroke-opacity="0.6" stroke-width="0.5"/>
<path d="M16.2812 73.4688V74.3945H12.168V82H11.043V73.4688H16.2812ZM20.002 80.916V77.6523C20.002 77.4023 19.9512 77.1855 19.8496 77.002C19.752 76.8145 19.6035 76.6699 19.4043 76.5684C19.2051 76.4668 18.959 76.416 18.666 76.416C18.3926 76.416 18.1523 76.4629 17.9453 76.5566C17.7422 76.6504 17.582 76.7734 17.4648 76.9258C17.3516 77.0781 17.2949 77.2422 17.2949 77.418H16.2109C16.2109 77.1914 16.2695 76.9668 16.3867 76.7441C16.5039 76.5215 16.6719 76.3203 16.8906 76.1406C17.1133 75.957 17.3789 75.8125 17.6875 75.707C18 75.5977 18.3477 75.543 18.7305 75.543C19.1914 75.543 19.5977 75.6211 19.9492 75.7773C20.3047 75.9336 20.582 76.1699 20.7812 76.4863C20.9844 76.7988 21.0859 77.1914 21.0859 77.6641V80.6172C21.0859 80.8281 21.1035 81.0527 21.1387 81.291C21.1777 81.5293 21.2344 81.7344 21.3086 81.9062V82H20.1777C20.123 81.875 20.0801 81.709 20.0488 81.502C20.0176 81.291 20.002 81.0957 20.002 80.916ZM20.1895 78.1562L20.2012 78.918H19.1055C18.7969 78.918 18.5215 78.9434 18.2793 78.9941C18.0371 79.041 17.834 79.1133 17.6699 79.2109C17.5059 79.3086 17.3809 79.4316 17.2949 79.5801C17.209 79.7246 17.166 79.8945 17.166 80.0898C17.166 80.2891 17.2109 80.4707 17.3008 80.6348C17.3906 80.7988 17.5254 80.9297 17.7051 81.0273C17.8887 81.1211 18.1133 81.168 18.3789 81.168C18.7109 81.168 19.0039 81.0977 19.2578 80.957C19.5117 80.8164 19.7129 80.6445 19.8613 80.4414C20.0137 80.2383 20.0957 80.041 20.1074 79.8496L20.5703 80.3711C20.543 80.5352 20.4688 80.7168 20.3477 80.916C20.2266 81.1152 20.0645 81.3066 19.8613 81.4902C19.6621 81.6699 19.4238 81.8203 19.1465 81.9414C18.873 82.0586 18.5645 82.1172 18.2207 82.1172C17.791 82.1172 17.4141 82.0332 17.0898 81.8652C16.7695 81.6973 16.5195 81.4727 16.3398 81.1914C16.1641 80.9062 16.0762 80.5879 16.0762 80.2363C16.0762 79.8965 16.1426 79.5977 16.2754 79.3398C16.4082 79.0781 16.5996 78.8613 16.8496 78.6895C17.0996 78.5137 17.4004 78.3809 17.752 78.291C18.1035 78.2012 18.4961 78.1562 18.9297 78.1562H20.1895ZM27.0273 75.6602V76.5566H23.9629V75.6602H27.0273ZM27.9824 75.6602V82H26.8984V75.6602H27.9824ZM23.6992 75.6602H24.7891L24.625 78.7188C24.5977 79.1914 24.5527 79.6094 24.4902 79.9727C24.4316 80.332 24.3496 80.6406 24.2441 80.8984C24.1426 81.1562 24.0137 81.3672 23.8574 81.5312C23.7051 81.6914 23.5215 81.8105 23.3066 81.8887C23.0918 81.9629 22.8438 82 22.5625 82H22.2227V81.0449L22.457 81.0273C22.625 81.0156 22.7676 80.9766 22.8848 80.9102C23.0059 80.8438 23.1074 80.7461 23.1895 80.6172C23.2715 80.4844 23.3379 80.3145 23.3887 80.1074C23.4434 79.9004 23.4844 79.6543 23.5117 79.3691C23.543 79.084 23.5664 78.752 23.582 78.373L23.6992 75.6602ZM32.3594 82.1172C31.918 82.1172 31.5176 82.043 31.1582 81.8945C30.8027 81.7422 30.4961 81.5293 30.2383 81.2559C29.9844 80.9824 29.7891 80.6582 29.6523 80.2832C29.5156 79.9082 29.4473 79.498 29.4473 79.0527V78.8066C29.4473 78.291 29.5234 77.832 29.6758 77.4297C29.8281 77.0234 30.0352 76.6797 30.2969 76.3984C30.5586 76.1172 30.8555 75.9043 31.1875 75.7598C31.5195 75.6152 31.8633 75.543 32.2188 75.543C32.6719 75.543 33.0625 75.6211 33.3906 75.7773C33.7227 75.9336 33.9941 76.1523 34.2051 76.4336C34.416 76.7109 34.5723 77.0391 34.6738 77.418C34.7754 77.793 34.8262 78.2031 34.8262 78.6484V79.1348H30.0918V78.25H33.7422V78.168C33.7266 77.8867 33.668 77.6133 33.5664 77.3477C33.4688 77.082 33.3125 76.8633 33.0977 76.6914C32.8828 76.5195 32.5898 76.4336 32.2188 76.4336C31.9727 76.4336 31.7461 76.4863 31.5391 76.5918C31.332 76.6934 31.1543 76.8457 31.0059 77.0488C30.8574 77.252 30.7422 77.5 30.6602 77.793C30.5781 78.0859 30.5371 78.4238 30.5371 78.8066V79.0527C30.5371 79.3535 30.5781 79.6367 30.6602 79.9023C30.7461 80.1641 30.8691 80.3945 31.0293 80.5938C31.1934 80.793 31.3906 80.9492 31.6211 81.0625C31.8555 81.1758 32.1211 81.2324 32.418 81.2324C32.8008 81.2324 33.125 81.1543 33.3906 80.998C33.6562 80.8418 33.8887 80.6328 34.0879 80.3711L34.7441 80.8926C34.6074 81.0996 34.4336 81.2969 34.2227 81.4844C34.0117 81.6719 33.752 81.8242 33.4434 81.9414C33.1387 82.0586 32.7773 82.1172 32.3594 82.1172ZM37.1758 76.8789V84.4375H36.0859V75.6602H37.082L37.1758 76.8789ZM41.4473 78.7773V78.9004C41.4473 79.3613 41.3926 79.7891 41.2832 80.1836C41.1738 80.5742 41.0137 80.9141 40.8027 81.2031C40.5957 81.4922 40.3398 81.7168 40.0352 81.877C39.7305 82.0371 39.3809 82.1172 38.9863 82.1172C38.584 82.1172 38.2285 82.0508 37.9199 81.918C37.6113 81.7852 37.3496 81.5918 37.1348 81.3379C36.9199 81.084 36.748 80.7793 36.6191 80.4238C36.4941 80.0684 36.4082 79.668 36.3613 79.2227V78.5664C36.4082 78.0977 36.4961 77.6777 36.625 77.3066C36.7539 76.9355 36.9238 76.6191 37.1348 76.3574C37.3496 76.0918 37.6094 75.8906 37.9141 75.7539C38.2188 75.6133 38.5703 75.543 38.9688 75.543C39.3672 75.543 39.7207 75.6211 40.0293 75.7773C40.3379 75.9297 40.5977 76.1484 40.8086 76.4336C41.0195 76.7188 41.1777 77.0605 41.2832 77.459C41.3926 77.8535 41.4473 78.293 41.4473 78.7773ZM40.3574 78.9004V78.7773C40.3574 78.4609 40.3242 78.1641 40.2578 77.8867C40.1914 77.6055 40.0879 77.3594 39.9473 77.1484C39.8105 76.9336 39.6348 76.7656 39.4199 76.6445C39.2051 76.5195 38.9492 76.457 38.6523 76.457C38.3789 76.457 38.1406 76.5039 37.9375 76.5977C37.7383 76.6914 37.5684 76.8184 37.4277 76.9785C37.2871 77.1348 37.1719 77.3145 37.082 77.5176C36.9961 77.7168 36.9316 77.9238 36.8887 78.1387V79.6562C36.9668 79.9297 37.0762 80.1875 37.2168 80.4297C37.3574 80.668 37.5449 80.8613 37.7793 81.0098C38.0137 81.1543 38.3086 81.2266 38.6641 81.2266C38.957 81.2266 39.209 81.166 39.4199 81.0449C39.6348 80.9199 39.8105 80.75 39.9473 80.5352C40.0879 80.3203 40.1914 80.0742 40.2578 79.7969C40.3242 79.5156 40.3574 79.2168 40.3574 78.9004ZM45.4609 82.1172C45.0195 82.1172 44.6191 82.043 44.2598 81.8945C43.9043 81.7422 43.5977 81.5293 43.3398 81.2559C43.0859 80.9824 42.8906 80.6582 42.7539 80.2832C42.6172 79.9082 42.5488 79.498 42.5488 79.0527V78.8066C42.5488 78.291 42.625 77.832 42.7773 77.4297C42.9297 77.0234 43.1367 76.6797 43.3984 76.3984C43.6602 76.1172 43.957 75.9043 44.2891 75.7598C44.6211 75.6152 44.9648 75.543 45.3203 75.543C45.7734 75.543 46.1641 75.6211 46.4922 75.7773C46.8242 75.9336 47.0957 76.1523 47.3066 76.4336C47.5176 76.7109 47.6738 77.0391 47.7754 77.418C47.877 77.793 47.9277 78.2031 47.9277 78.6484V79.1348H43.1934V78.25H46.8438V78.168C46.8281 77.8867 46.7695 77.6133 46.668 77.3477C46.5703 77.082 46.4141 76.8633 46.1992 76.6914C45.9844 76.5195 45.6914 76.4336 45.3203 76.4336C45.0742 76.4336 44.8477 76.4863 44.6406 76.5918C44.4336 76.6934 44.2559 76.8457 44.1074 77.0488C43.959 77.252 43.8438 77.5 43.7617 77.793C43.6797 78.0859 43.6387 78.4238 43.6387 78.8066V79.0527C43.6387 79.3535 43.6797 79.6367 43.7617 79.9023C43.8477 80.1641 43.9707 80.3945 44.1309 80.5938C44.2949 80.793 44.4922 80.9492 44.7227 81.0625C44.957 81.1758 45.2227 81.2324 45.5195 81.2324C45.9023 81.2324 46.2266 81.1543 46.4922 80.998C46.7578 80.8418 46.9902 80.6328 47.1895 80.3711L47.8457 80.8926C47.709 81.0996 47.5352 81.2969 47.3242 81.4844C47.1133 81.6719 46.8535 81.8242 46.5449 81.9414C46.2402 82.0586 45.8789 82.1172 45.4609 82.1172ZM50.4766 78.9766H51.6484L49.8145 82H48.6426L50.4766 78.9766ZM51.3848 75.6602H54.0332V82H52.9492V76.5391H51.3848C51.0762 76.5391 50.8242 76.5918 50.6289 76.6973C50.4336 76.7988 50.291 76.9316 50.2012 77.0957C50.1113 77.2598 50.0664 77.4297 50.0664 77.6055C50.0664 77.7773 50.1074 77.9434 50.1895 78.1035C50.2715 78.2598 50.4004 78.3887 50.5762 78.4902C50.752 78.5918 50.9785 78.6426 51.2559 78.6426H53.2422V79.5332H51.2559C50.8926 79.5332 50.5703 79.4844 50.2891 79.3867C50.0078 79.2891 49.7695 79.1543 49.5742 78.9824C49.3789 78.8066 49.2305 78.6016 49.1289 78.3672C49.0273 78.1289 48.9766 77.8711 48.9766 77.5938C48.9766 77.3164 49.0293 77.0605 49.1348 76.8262C49.2441 76.5918 49.4004 76.3867 49.6035 76.2109C49.8105 76.0352 50.0625 75.9004 50.3594 75.8066C50.6602 75.709 51.002 75.6602 51.3848 75.6602Z" fill="black"/>
<path d="M37.1667 18.5H20.8333C19.5447 18.5 18.5 19.5447 18.5 20.8333V37.1667C18.5 38.4553 19.5447 39.5 20.8333 39.5H37.1667C38.4553 39.5 39.5 38.4553 39.5 37.1667V20.8333C39.5 19.5447 38.4553 18.5 37.1667 18.5Z" fill="#3473E6" stroke="white" stroke-width="1.5" stroke-linecap="round" stroke-linejoin="round"/>
<path d="M24.9166 26.666C25.8831 26.666 26.6666 25.8825 26.6666 24.916C26.6666 23.9495 25.8831 23.166 24.9166 23.166C23.9501 23.166 23.1666 23.9495 23.1666 24.916C23.1666 25.8825 23.9501 26.666 24.9166 26.666Z" fill="#3473E6" stroke="white" stroke-width="1.5" stroke-linecap="round" stroke-linejoin="round"/>
<path d="M39.5 32.4993L33.6667 26.666L20.8334 39.4993" fill="#3473E6"/>
<path d="M39.5 32.4993L33.6667 26.666L20.8334 39.4993" stroke="white" stroke-width="1.5" stroke-linecap="round" stroke-linejoin="round"/>
</svg>
